<?xml version="1.0" encoding="utf-8"?>
<!-- Generator: Adobe Illustrator 23.0.2, SVG Export Plug-In . SVG Version: 6.00 Build 0)  -->
<svg version="1.1" id="Layer_1" xmlns="http://www.w3.org/2000/svg" xmlns:xlink="http://www.w3.org/1999/xlink" x="0px" y="0px"
	 viewBox="0 0 914.64 278.51" style="enable-background:new 0 0 914.64 278.51;" xml:space="preserve">
<style type="text/css">
	.st0{fill:#B82538;}
	.st1{fill:none;}
</style>
<g>
	<g>
		<g>
			<path class="st0" d="M125.63,16.69"/>
		</g>
		<g>
			<path class="st0" d="M127.03,16.56"/>
		</g>
		<g>
			<path class="st0" d="M125.63,16.69"/>
		</g>
		<path class="st0" d="M158.65,123.87c0.43,0.98,0.74,1.96,0.92,2.92c0.48-0.4,1-0.84,1.52-1.3
			C160.33,125.3,159.47,124.84,158.65,123.87z"/>
		<path class="st0" d="M24,195.41c-0.69,23.65,4.7,35.67,8.87,41.36c3.63,4.95,7.11,6.34,8.04,6.43c2.58,0.27,7.01,0.7,14.5-7.42
			C42.41,224.63,31.67,210.91,24,195.41z"/>
		<path class="st0" d="M186.79,69.9c-9.27-2.96-17.69-2.36-22.61,1.57c-1.06,1.71-6.34,11.31,0.31,23.45
			c5.74,10.49,4.76,22.8,1.83,27.76c2.31-0.44,5.47-0.56,7.44,1.4c1.79,1.78,2.02,4.53,0.69,8.18c-1.73,4.74-8.95,9.51-12.26,11.49
			c0.31,0.9,0.98,2.06,2.42,2.82c3.14,1.64,8.29,7.29,9.39,14.21c0.82,5.16-0.82,9.99-4.73,13.98c-3.31,3.38-5.5,5.86-7.09,7.66
			c-3.18,3.6-4.63,5.24-8.21,5.71c-0.1,0.09-0.24,0.77,0.08,1.83c0.41,1.34,1.31,2.48,2.23,2.84c2.29,0.9,3.32,0.7,3.73,0.5
			c0.43-0.21,0.78-0.73,1.04-1.55c0.73-2.34,2.91-3.71,5.56-3.46c3.42,0.31,7.43,3.3,7.95,7.59c0.13,1.05,0.2,2.07,0.27,3.05
			c0.1,1.46,0.26,3.63,0.64,4.23c0.02,0,0.04,0,0.06,0c1.64,0,5.06,0,6.95,2.48c1.34,1.76,1.56,4.22,0.65,7.53
			c-0.18,0.68-0.24,1.12-0.25,1.39c0.53-0.01,1.27-0.1,1.74-0.17c0.65-0.09,1.27-0.17,1.87-0.17c1.62,0,3.86,0.99,7.38,2.6
			c1.7,0.78,4.54,2.08,5.34,2.14c0.01,0,0.02,0,0.02,0c0.86,0,2.64,0.12,15.31,11.51c15.02-12.62,26.9-28.86,34.26-47.38
			c-0.91-11.53-3.09-24.97-7.09-40.54C227.4,86.81,196.06,72.85,186.79,69.9z"/>
		<path class="st0" d="M220.51,235.91c1.09,1.01,2.23,2.08,3.44,3.21c0.04,0.04,6.84,6.11,12.1,3.3
			c2.97-1.58,12.22-13.73,13.2-41.65C241.83,214.14,232.06,226.04,220.51,235.91z"/>
		<path class="st0" d="M60.46,229.57c0.03-0.04,0.05-0.07,0.08-0.11c11.13-15.25,35.48-18.95,43.3-17.86
			c0.38,0.04,1.22,0.05,1.71-0.61c-0.49-0.82-1.94-2.39-3.03-3.58c-4.22-4.57-9.99-10.83-7.74-17.8c1.38-4.29,4.89-6.96,8.29-9.54
			c4.86-3.7,9.46-7.19,9.46-15.5c0-6.09-0.26-9.89-0.44-12.66c-0.29-4.39-0.43-6.4,1.32-9.6c0.19-0.34,0.14-0.47,0.1-0.57
			c-0.38-1-2.56-2.24-3.92-2.72l-4.21-1.48l3.46-2.82c0.89-0.73,21.93-17.79,32.79-20c5.28-1.07,10.24,0.51,13.93,4.47
			c0.23,0.24,0.45,0.49,0.66,0.75c-0.29-0.46-0.59-0.94-0.91-1.44c-4.67-7.34-11.73-18.42-12.22-38.66
			c-0.52-21.29,1.3-48.79,1.67-54.11c-5.05-0.36-9.86-0.39-14.93-0.08c0.09,5.61,0.45,13.02,0.86,21.43
			c0.59,12.2,1.26,26.03,1.26,37.97c0,5.74-3.21,29.53-18.9,40.99l-3.98,2.91v-4.92c0-6.84,0.2-23.12,2.04-26.48
			c1.01-2.17,2.74-18.96-2.04-27.1c-1.47-2.5-3.35-3.79-5.75-3.97c-0.26-0.02-0.53-0.03-0.81-0.03c-6.5,0-20.64,4.91-35.7,19.04
			c-12.97,12.17-30.1,34.77-38.1,73.28c-1.46,7.02-2.52,13.44-3.28,19.34C32.39,198.25,44.62,215.95,60.46,229.57z"/>
		<path class="st0" d="M138.04,258.37c-27.81,0-53.42-9.58-73.71-25.61c-1.78,2.41-3.45,4.46-5.04,6.21
			c21.67,17.15,49.04,27.4,78.76,27.4c29.63,0,56.93-10.19,78.57-27.25c-2.04-1.88-4.08-3.73-6.02-5.46
			C190.48,249.14,165.32,258.37,138.04,258.37z"/>
		<path class="st0" d="M18.89,139.22c0-65.7,53.45-119.15,119.15-119.15c65.7,0,119.15,53.45,119.15,119.15
			c0,11.29-1.58,22.22-4.53,32.58c0.92,6.8,1.46,13.07,1.66,18.82c6.98-15.73,10.87-33.12,10.87-51.4
			c0-70.11-57.04-127.15-127.15-127.15S10.89,69.11,10.89,139.22c0,16.28,3.08,31.85,8.68,46.17c0.51-5.72,1.33-11.94,2.52-18.72
			C20,157.85,18.89,148.66,18.89,139.22z"/>
		<path class="st0" d="M250.82,177.66c-0.63,1.83-1.29,3.64-2,5.43c0.51,6.49,0.63,12.37,0.44,17.68c0.9-1.62,1.77-3.27,2.6-4.93
			C251.85,190.31,251.53,184.25,250.82,177.66z"/>
		<path class="st0" d="M55.42,235.78c0.64,0.54,1.27,1.09,1.92,1.62c1.57-1.71,3.24-3.76,5.04-6.21c-0.64-0.53-1.28-1.07-1.91-1.62
			C58.64,232.06,56.96,234.1,55.42,235.78z"/>
		<path class="st0" d="M214.56,230.47c-0.65,0.55-1.31,1.09-1.98,1.63c2.21,1.97,4.31,3.89,5.99,5.44c0.65-0.54,1.3-1.08,1.94-1.63
			C218.3,233.85,216.33,232.05,214.56,230.47z"/>
		<path class="st0" d="M25.41,178.11c-0.63-1.82-1.22-3.66-1.76-5.51c-0.99,6.51-1.62,12.46-1.95,17.9c0.73,1.66,1.5,3.29,2.3,4.91
			C24.15,190.22,24.6,184.47,25.41,178.11z"/>
	</g>
	<path class="st0" d="M244.15,141.93c-17.87-69.52-66.29-85.32-81.86-72.15c0,0-8.07,11.59,0,26.33
		c8.07,14.75,1.73,32.65-2.31,25.28c-4.04-7.37-13.84-17.91-14.41-41.61c-0.58-23.7,1.73-54.77,1.73-54.77s0-0.14,0-1.58
		c-3.52-0.32-7.07-0.49-10.67-0.49c-3.14,0-6.26,0.13-9.34,0.38c0.03,13.39,2.14,40.59,2.14,61.73c0,6.32-3.46,28.44-17.87,38.97
		c0,0,0-22.12,1.73-25.28c1.73-3.16,4.61-33.71-9.8-34.76c-14.41-1.05-62.26,22.12-77.25,94.28c-14.99,72.15,9.22,86.9,14.41,87.43
		c5.19,0.53,11.53-0.53,21.91-14.75c10.38-14.22,33.43-17.91,40.93-16.85c0,0,3.46,0.53,4.61-2.63
		c1.15-3.16-13.83-12.11-10.95-21.07c2.88-8.95,17.87-10.01,17.87-25.81s-1.73-16.85,0.58-21.07c2.31-4.21-5.19-6.85-5.19-6.85
		s21.33-17.38,31.71-19.49c10.38-2.11,16.14,8.43,14.99,12.64c-1.15,4.21,7.35-4.04,7.35-4.04s11.21-4.14,7.64,5.62
		c-1.88,5.14-12.68,11.06-12.68,11.06s0,4.21,4.04,6.32c4.04,2.11,13.84,14.22,4.04,24.23c-9.8,10.01-9.8,12.11-13.84,12.64
		c-4.04,0.53-2.31,7.9,1.73,9.48c4.04,1.58,6.92,1.05,8.07-2.63c1.15-3.69,8.07-1.05,8.65,3.69c0.58,4.74,0,9.48,3.46,9.48
		c3.46,0,6.92,0.53,5.19,6.85c-1.73,6.32,3.46,4.21,5.76,4.21c2.31,0,10.38,4.74,12.68,4.74c2.31,0,23.06,19.49,23.06,19.49
		s8.07,7.37,14.99,3.69C244.15,240.94,262.02,211.45,244.15,141.93z"/>
</g>
<g>
	<path class="st0" d="M413.77,58.79h-37.34v122.72c0,7.07-1.58,12.31-4.72,15.73c-3.15,3.42-7.22,5.13-12.21,5.13
		c-5.07,0-9.2-1.73-12.39-5.19c-3.19-3.46-4.78-8.68-4.78-15.67V58.79h-37.34c-5.84,0-10.18-1.29-13.02-3.86
		c-2.84-2.57-4.26-5.97-4.26-10.2c0-4.38,1.48-7.84,4.44-10.37c2.96-2.54,7.24-3.8,12.85-3.8h108.78c5.92,0,10.31,1.31,13.19,3.92
		c2.88,2.61,4.32,6.03,4.32,10.26c0,4.23-1.46,7.63-4.38,10.2C423.98,57.5,419.6,58.79,413.77,58.79z"/>
	<path class="st0" d="M561.27,58.79h-37.34v122.72c0,7.07-1.58,12.31-4.72,15.73c-3.15,3.42-7.22,5.13-12.21,5.13
		c-5.07,0-9.2-1.73-12.39-5.19c-3.19-3.46-4.78-8.68-4.78-15.67V58.79h-37.34c-5.84,0-10.18-1.29-13.02-3.86
		c-2.84-2.57-4.26-5.97-4.26-10.2c0-4.38,1.48-7.84,4.44-10.37c2.96-2.54,7.24-3.8,12.85-3.8h108.78c5.92,0,10.31,1.31,13.19,3.92
		c2.88,2.61,4.32,6.03,4.32,10.26c0,4.23-1.46,7.63-4.38,10.2C571.48,57.5,567.1,58.79,561.27,58.79z"/>
	<path class="st0" d="M727.44,148.79c0,10.22-2.63,19.4-7.89,27.54c-5.26,8.14-12.96,14.52-23.1,19.13s-22.17,6.91-36.07,6.91
		c-16.67,0-30.42-3.15-41.25-9.45c-7.68-4.53-13.93-10.58-18.73-18.15c-4.8-7.57-7.2-14.92-7.2-22.07c0-4.15,1.44-7.7,4.32-10.66
		c2.88-2.96,6.55-4.44,11-4.44c3.61,0,6.66,1.15,9.16,3.46c2.5,2.3,4.63,5.72,6.4,10.26c2.15,5.38,4.47,9.87,6.97,13.48
		c2.5,3.61,6.01,6.59,10.54,8.93c4.53,2.34,10.49,3.51,17.86,3.51c10.14,0,18.38-2.36,24.72-7.09s9.51-10.62,9.51-17.69
		c0-5.61-1.71-10.16-5.13-13.66c-3.42-3.49-7.84-6.17-13.25-8.01s-12.66-3.8-21.72-5.88c-12.14-2.84-22.3-6.17-30.48-9.97
		s-14.67-8.99-19.47-15.56c-4.8-6.57-7.2-14.73-7.2-24.49c0-9.29,2.54-17.55,7.61-24.78c5.07-7.22,12.41-12.77,22.01-16.65
		c9.6-3.88,20.9-5.82,33.88-5.82c10.37,0,19.34,1.29,26.91,3.86c7.57,2.57,13.85,5.99,18.84,10.26c4.99,4.26,8.64,8.74,10.95,13.42
		c2.3,4.69,3.46,9.26,3.46,13.71c0,4.07-1.44,7.74-4.32,11c-2.88,3.27-6.47,4.9-10.77,4.9c-3.92,0-6.9-0.98-8.93-2.94
		c-2.04-1.96-4.25-5.17-6.63-9.62c-3.07-6.38-6.76-11.35-11.06-14.92c-4.3-3.57-11.22-5.36-20.74-5.36
		c-8.83,0-15.96,1.94-21.38,5.82c-5.42,3.88-8.12,8.55-8.12,14c0,3.38,0.92,6.3,2.77,8.76c1.84,2.46,4.38,4.57,7.61,6.34
		c3.23,1.77,6.49,3.15,9.79,4.15c3.3,1,8.76,2.46,16.36,4.38c9.52,2.23,18.15,4.69,25.87,7.38c7.72,2.69,14.29,5.95,19.71,9.79
		c5.42,3.84,9.64,8.7,12.68,14.58C725.92,133.06,727.44,140.26,727.44,148.79z"/>
	<path class="st0" d="M864.56,180.36l-8.07-21.2h-68.68l-8.07,21.66c-3.15,8.45-5.84,14.16-8.07,17.11
		c-2.23,2.96-5.88,4.44-10.95,4.44c-4.3,0-8.11-1.58-11.41-4.72c-3.3-3.15-4.96-6.72-4.96-10.72c0-2.3,0.38-4.69,1.15-7.14
		c0.77-2.46,2.03-5.88,3.8-10.26l43.21-109.7c1.23-3.15,2.71-6.93,4.44-11.35c1.73-4.42,3.57-8.08,5.53-11
		c1.96-2.92,4.53-5.28,7.72-7.09c3.19-1.8,7.13-2.71,11.81-2.71c4.76,0,8.74,0.9,11.93,2.71c3.19,1.81,5.76,4.13,7.72,6.97
		c1.96,2.84,3.61,5.9,4.96,9.16c1.34,3.27,3.05,7.63,5.13,13.08l44.13,109.01c3.46,8.3,5.19,14.33,5.19,18.09
		c0,3.92-1.63,7.51-4.9,10.77c-3.27,3.26-7.2,4.9-11.81,4.9c-2.69,0-5-0.48-6.91-1.44c-1.92-0.96-3.53-2.26-4.84-3.92
		c-1.31-1.65-2.71-4.19-4.21-7.61C866.93,185.99,865.64,182.97,864.56,180.36z M796.81,133.46h50.47l-25.47-69.72L796.81,133.46z"/>
</g>
<g>
	<path class="st0" d="M304.15,217.44c0,0.25-0.01,0.47-0.04,0.66c-0.03,0.19-0.07,0.34-0.13,0.45c-0.06,0.11-0.13,0.2-0.22,0.25
		c-0.09,0.05-0.18,0.08-0.29,0.08h-7.29v22.46c0,0.11-0.03,0.2-0.08,0.28c-0.05,0.08-0.15,0.14-0.28,0.19
		c-0.13,0.05-0.31,0.09-0.53,0.12c-0.22,0.03-0.5,0.05-0.83,0.05c-0.32,0-0.59-0.02-0.82-0.05c-0.23-0.03-0.41-0.07-0.54-0.12
		c-0.13-0.05-0.23-0.11-0.28-0.19c-0.05-0.08-0.08-0.17-0.08-0.28v-22.46h-7.29c-0.11,0-0.2-0.03-0.29-0.08
		c-0.09-0.05-0.16-0.14-0.21-0.25c-0.05-0.11-0.1-0.26-0.13-0.45c-0.03-0.19-0.05-0.41-0.05-0.66c0-0.25,0.02-0.48,0.05-0.67
		c0.03-0.19,0.08-0.35,0.13-0.47c0.05-0.12,0.12-0.21,0.21-0.26c0.09-0.05,0.18-0.08,0.29-0.08h18.02c0.11,0,0.2,0.03,0.29,0.08
		c0.09,0.05,0.16,0.14,0.22,0.26c0.06,0.12,0.1,0.28,0.13,0.47C304.14,216.96,304.15,217.19,304.15,217.44z"/>
	<path class="st0" d="M320.41,241.36c0,0.11-0.02,0.2-0.07,0.27c-0.05,0.07-0.13,0.14-0.25,0.19s-0.28,0.09-0.47,0.12
		c-0.19,0.03-0.43,0.04-0.71,0.04c-0.31,0-0.56-0.01-0.75-0.04c-0.19-0.03-0.35-0.07-0.46-0.12s-0.19-0.12-0.23-0.19
		c-0.04-0.07-0.06-0.16-0.06-0.27v-2.38c-1.03,1.13-2.04,1.96-3.04,2.48s-2.02,0.78-3.04,0.78c-1.2,0-2.21-0.2-3.03-0.6
		c-0.82-0.4-1.48-0.94-1.99-1.63c-0.51-0.69-0.87-1.49-1.09-2.4c-0.22-0.91-0.33-2.03-0.33-3.33v-10.93c0-0.11,0.02-0.2,0.07-0.27
		c0.05-0.07,0.14-0.14,0.27-0.2c0.13-0.06,0.31-0.1,0.52-0.12c0.21-0.02,0.48-0.03,0.8-0.03s0.59,0.01,0.8,0.03
		c0.21,0.02,0.38,0.06,0.51,0.12c0.13,0.06,0.22,0.13,0.27,0.2c0.05,0.07,0.08,0.16,0.08,0.27v10.49c0,1.05,0.08,1.9,0.23,2.53
		c0.15,0.63,0.39,1.17,0.7,1.62c0.31,0.45,0.71,0.79,1.19,1.04c0.48,0.25,1.04,0.37,1.68,0.37c0.83,0,1.65-0.29,2.47-0.88
		c0.82-0.59,1.69-1.45,2.61-2.58v-12.59c0-0.11,0.02-0.2,0.07-0.27c0.05-0.07,0.14-0.14,0.27-0.2c0.13-0.06,0.3-0.1,0.51-0.12
		c0.21-0.02,0.48-0.03,0.81-0.03c0.32,0,0.59,0.01,0.8,0.03c0.21,0.02,0.38,0.06,0.5,0.12c0.12,0.06,0.21,0.13,0.27,0.2
		c0.06,0.07,0.09,0.16,0.09,0.27V241.36z"/>
	<path class="st0" d="M342.03,241.36c0,0.11-0.03,0.2-0.08,0.27c-0.05,0.07-0.14,0.14-0.26,0.19c-0.12,0.05-0.29,0.09-0.5,0.12
		c-0.21,0.03-0.48,0.04-0.8,0.04c-0.33,0-0.61-0.01-0.82-0.04c-0.21-0.03-0.38-0.07-0.5-0.12s-0.21-0.12-0.26-0.19
		c-0.05-0.07-0.08-0.16-0.08-0.27v-10.55c0-1.03-0.08-1.85-0.24-2.48c-0.16-0.63-0.39-1.17-0.7-1.62c-0.31-0.45-0.7-0.8-1.19-1.04
		s-1.05-0.36-1.69-0.36c-0.83,0-1.66,0.29-2.48,0.88c-0.83,0.59-1.7,1.45-2.6,2.58v12.59c0,0.11-0.03,0.2-0.08,0.27
		c-0.05,0.07-0.14,0.14-0.26,0.19c-0.12,0.05-0.29,0.09-0.5,0.12c-0.21,0.03-0.49,0.04-0.82,0.04c-0.32,0-0.59-0.01-0.8-0.04
		c-0.21-0.03-0.38-0.07-0.51-0.12c-0.13-0.05-0.21-0.12-0.26-0.19c-0.05-0.07-0.07-0.16-0.07-0.27v-18.02c0-0.11,0.02-0.2,0.06-0.27
		s0.12-0.14,0.24-0.2c0.12-0.06,0.27-0.1,0.46-0.12c0.19-0.02,0.43-0.03,0.74-0.03c0.29,0,0.54,0.01,0.73,0.03
		c0.19,0.02,0.34,0.06,0.45,0.12c0.11,0.06,0.18,0.13,0.23,0.2s0.07,0.16,0.07,0.27v2.38c1.01-1.13,2.03-1.96,3.03-2.49
		c1.01-0.53,2.02-0.79,3.05-0.79c1.2,0,2.21,0.2,3.03,0.61c0.82,0.41,1.48,0.95,1.99,1.63c0.51,0.68,0.87,1.48,1.09,2.39
		c0.22,0.91,0.33,2.01,0.33,3.29V241.36z"/>
	<path class="st0" d="M351.74,217.26c0,0.77-0.15,1.3-0.44,1.58c-0.29,0.28-0.83,0.42-1.62,0.42c-0.77,0-1.3-0.14-1.59-0.41
		c-0.29-0.27-0.43-0.79-0.43-1.55c0-0.77,0.15-1.3,0.44-1.58c0.29-0.28,0.83-0.42,1.62-0.42c0.77,0,1.3,0.14,1.59,0.41
		C351.59,215.98,351.74,216.5,351.74,217.26z M351.36,241.36c0,0.11-0.03,0.2-0.08,0.27c-0.05,0.07-0.14,0.14-0.26,0.19
		c-0.12,0.05-0.29,0.09-0.5,0.12c-0.21,0.03-0.49,0.04-0.82,0.04c-0.32,0-0.59-0.01-0.8-0.04c-0.21-0.03-0.38-0.07-0.51-0.12
		c-0.13-0.05-0.21-0.12-0.26-0.19c-0.05-0.07-0.07-0.16-0.07-0.27v-18.02c0-0.09,0.02-0.18,0.07-0.26s0.13-0.15,0.26-0.2
		c0.13-0.05,0.3-0.09,0.51-0.12c0.21-0.03,0.48-0.04,0.8-0.04c0.33,0,0.61,0.01,0.82,0.04c0.21,0.03,0.38,0.07,0.5,0.12
		c0.12,0.05,0.21,0.12,0.26,0.2c0.05,0.08,0.08,0.17,0.08,0.26V241.36z"/>
	<path class="st0" d="M368.77,236.46c0,0.92-0.17,1.74-0.51,2.46c-0.34,0.72-0.82,1.33-1.45,1.82c-0.63,0.49-1.38,0.87-2.24,1.12
		c-0.87,0.25-1.82,0.38-2.86,0.38c-0.64,0-1.25-0.05-1.83-0.15c-0.58-0.1-1.1-0.23-1.56-0.38c-0.46-0.15-0.85-0.31-1.17-0.48
		c-0.32-0.17-0.55-0.32-0.7-0.45c-0.15-0.13-0.25-0.32-0.32-0.56c-0.07-0.24-0.1-0.57-0.1-0.98c0-0.25,0.01-0.47,0.04-0.64
		c0.03-0.17,0.06-0.31,0.1-0.42c0.04-0.11,0.1-0.18,0.17-0.23c0.07-0.05,0.16-0.07,0.25-0.07c0.15,0,0.36,0.09,0.65,0.27
		c0.29,0.18,0.64,0.38,1.06,0.59c0.42,0.21,0.92,0.41,1.49,0.59c0.57,0.18,1.23,0.27,1.98,0.27c0.56,0,1.07-0.06,1.52-0.18
		c0.45-0.12,0.85-0.3,1.18-0.53c0.33-0.23,0.59-0.53,0.77-0.89c0.18-0.36,0.27-0.79,0.27-1.28c0-0.51-0.13-0.93-0.39-1.28
		c-0.26-0.35-0.6-0.65-1.03-0.92c-0.43-0.27-0.91-0.5-1.44-0.71c-0.53-0.21-1.08-0.42-1.65-0.65c-0.57-0.23-1.12-0.48-1.66-0.77
		c-0.54-0.29-1.02-0.64-1.45-1.05c-0.43-0.41-0.77-0.91-1.03-1.48c-0.26-0.57-0.39-1.26-0.39-2.06c0-0.71,0.14-1.38,0.41-2.03
		c0.27-0.65,0.68-1.21,1.23-1.7c0.55-0.49,1.23-0.88,2.05-1.17c0.82-0.29,1.78-0.44,2.87-0.44c0.48,0,0.96,0.04,1.44,0.12
		s0.91,0.18,1.3,0.3c0.39,0.12,0.72,0.25,0.99,0.39c0.27,0.14,0.48,0.26,0.62,0.37c0.14,0.11,0.23,0.2,0.28,0.28s0.08,0.17,0.1,0.27
		c0.02,0.1,0.04,0.22,0.06,0.37c0.02,0.15,0.03,0.33,0.03,0.54c0,0.23-0.01,0.42-0.03,0.59c-0.02,0.17-0.05,0.3-0.1,0.41
		c-0.05,0.11-0.1,0.18-0.17,0.23c-0.07,0.05-0.14,0.07-0.22,0.07c-0.12,0-0.29-0.07-0.52-0.22c-0.23-0.15-0.52-0.3-0.88-0.47
		c-0.36-0.17-0.78-0.32-1.27-0.47c-0.49-0.15-1.04-0.22-1.67-0.22c-0.56,0-1.05,0.06-1.48,0.19c-0.43,0.13-0.78,0.31-1.05,0.54
		c-0.27,0.23-0.48,0.51-0.62,0.83c-0.14,0.32-0.21,0.67-0.21,1.04c0,0.52,0.13,0.96,0.4,1.31c0.27,0.35,0.61,0.66,1.04,0.93
		c0.43,0.27,0.91,0.51,1.46,0.72c0.55,0.21,1.1,0.43,1.67,0.66c0.57,0.23,1.13,0.48,1.68,0.76c0.55,0.28,1.04,0.62,1.47,1.02
		c0.43,0.4,0.77,0.88,1.03,1.44C368.64,235.02,368.77,235.68,368.77,236.46z"/>
	<path class="st0" d="M377.18,217.26c0,0.77-0.15,1.3-0.44,1.58c-0.29,0.28-0.83,0.42-1.62,0.42c-0.77,0-1.3-0.14-1.59-0.41
		c-0.29-0.27-0.43-0.79-0.43-1.55c0-0.77,0.15-1.3,0.44-1.58c0.29-0.28,0.83-0.42,1.62-0.42c0.77,0,1.3,0.14,1.59,0.41
		C377.04,215.98,377.18,216.5,377.18,217.26z M376.8,241.36c0,0.11-0.03,0.2-0.08,0.27c-0.05,0.07-0.14,0.14-0.26,0.19
		c-0.12,0.05-0.29,0.09-0.5,0.12c-0.21,0.03-0.49,0.04-0.82,0.04c-0.32,0-0.59-0.01-0.8-0.04c-0.21-0.03-0.38-0.07-0.51-0.12
		c-0.13-0.05-0.21-0.12-0.26-0.19c-0.05-0.07-0.07-0.16-0.07-0.27v-18.02c0-0.09,0.02-0.18,0.07-0.26s0.13-0.15,0.26-0.2
		c0.13-0.05,0.3-0.09,0.51-0.12c0.21-0.03,0.48-0.04,0.8-0.04c0.33,0,0.61,0.01,0.82,0.04c0.21,0.03,0.38,0.07,0.5,0.12
		c0.12,0.05,0.21,0.12,0.26,0.2c0.05,0.08,0.08,0.17,0.08,0.26V241.36z"/>
	<path class="st0" d="M396.48,241.38c0,0.16-0.05,0.28-0.16,0.36c-0.11,0.08-0.25,0.14-0.44,0.18c-0.19,0.04-0.46,0.06-0.82,0.06
		c-0.35,0-0.62-0.02-0.83-0.06c-0.21-0.04-0.36-0.1-0.45-0.18c-0.09-0.08-0.14-0.2-0.14-0.36v-1.8c-0.79,0.84-1.67,1.5-2.63,1.96
		c-0.97,0.47-1.99,0.7-3.07,0.7c-0.95,0-1.81-0.12-2.57-0.37c-0.77-0.25-1.42-0.6-1.96-1.07c-0.54-0.47-0.96-1.04-1.26-1.72
		c-0.3-0.68-0.45-1.45-0.45-2.32c0-1.01,0.21-1.89,0.62-2.64c0.41-0.75,1.01-1.37,1.78-1.86c0.77-0.49,1.72-0.86,2.84-1.11
		c1.12-0.25,2.38-0.37,3.78-0.37h2.48v-1.4c0-0.69-0.07-1.31-0.22-1.84c-0.15-0.53-0.38-0.98-0.71-1.33s-0.75-0.62-1.27-0.8
		c-0.52-0.18-1.16-0.27-1.92-0.27c-0.81,0-1.54,0.1-2.19,0.29c-0.65,0.19-1.21,0.41-1.7,0.64c-0.49,0.23-0.89,0.45-1.22,0.64
		c-0.33,0.19-0.57,0.29-0.73,0.29c-0.11,0-0.2-0.03-0.28-0.08c-0.08-0.05-0.15-0.13-0.21-0.24c-0.06-0.11-0.1-0.24-0.13-0.41
		c-0.03-0.17-0.04-0.35-0.04-0.55c0-0.33,0.02-0.6,0.07-0.79c0.05-0.19,0.16-0.38,0.34-0.55c0.18-0.17,0.49-0.38,0.93-0.61
		c0.44-0.23,0.95-0.45,1.52-0.64c0.57-0.19,1.2-0.35,1.88-0.48c0.68-0.13,1.37-0.19,2.06-0.19c1.29,0,2.4,0.15,3.3,0.44
		c0.91,0.29,1.64,0.72,2.2,1.29c0.56,0.57,0.97,1.27,1.22,2.11c0.25,0.84,0.38,1.82,0.38,2.94V241.38z M393.2,233.15h-2.82
		c-0.91,0-1.7,0.08-2.36,0.23c-0.67,0.15-1.22,0.38-1.66,0.68c-0.44,0.3-0.76,0.66-0.97,1.08c-0.21,0.42-0.31,0.9-0.31,1.45
		c0,0.93,0.3,1.68,0.89,2.23c0.59,0.55,1.42,0.83,2.49,0.83c0.87,0,1.67-0.22,2.41-0.66c0.74-0.44,1.52-1.11,2.33-2.02V233.15z"/>
	<path class="st0" d="M418.06,241.36c0,0.11-0.03,0.2-0.08,0.27c-0.05,0.07-0.14,0.14-0.26,0.19c-0.12,0.05-0.29,0.09-0.5,0.12
		c-0.21,0.03-0.48,0.04-0.8,0.04c-0.33,0-0.61-0.01-0.82-0.04c-0.21-0.03-0.38-0.07-0.5-0.12s-0.21-0.12-0.26-0.19
		c-0.05-0.07-0.08-0.16-0.08-0.27v-10.55c0-1.03-0.08-1.85-0.24-2.48c-0.16-0.63-0.39-1.17-0.7-1.62c-0.31-0.45-0.7-0.8-1.19-1.04
		s-1.05-0.36-1.69-0.36c-0.83,0-1.66,0.29-2.48,0.88c-0.83,0.59-1.7,1.45-2.6,2.58v12.59c0,0.11-0.03,0.2-0.08,0.27
		c-0.05,0.07-0.14,0.14-0.26,0.19c-0.12,0.05-0.29,0.09-0.5,0.12c-0.21,0.03-0.49,0.04-0.82,0.04c-0.32,0-0.59-0.01-0.8-0.04
		c-0.21-0.03-0.38-0.07-0.51-0.12c-0.13-0.05-0.21-0.12-0.26-0.19c-0.05-0.07-0.07-0.16-0.07-0.27v-18.02c0-0.11,0.02-0.2,0.06-0.27
		s0.12-0.14,0.24-0.2c0.12-0.06,0.27-0.1,0.46-0.12c0.19-0.02,0.43-0.03,0.74-0.03c0.29,0,0.54,0.01,0.73,0.03
		c0.19,0.02,0.34,0.06,0.45,0.12c0.11,0.06,0.18,0.13,0.23,0.2s0.07,0.16,0.07,0.27v2.38c1.01-1.13,2.03-1.96,3.03-2.49
		c1.01-0.53,2.02-0.79,3.05-0.79c1.2,0,2.21,0.2,3.03,0.61c0.82,0.41,1.48,0.95,1.99,1.63c0.51,0.68,0.87,1.48,1.09,2.39
		c0.22,0.91,0.33,2.01,0.33,3.29V241.36z"/>
	<path class="st0" d="M449.97,217.44c0,0.25-0.01,0.47-0.04,0.66c-0.03,0.19-0.07,0.34-0.13,0.45c-0.06,0.11-0.13,0.2-0.22,0.25
		c-0.09,0.05-0.18,0.08-0.29,0.08H442v22.46c0,0.11-0.03,0.2-0.08,0.28c-0.05,0.08-0.15,0.14-0.28,0.19
		c-0.13,0.05-0.31,0.09-0.53,0.12c-0.22,0.03-0.5,0.05-0.83,0.05c-0.32,0-0.59-0.02-0.82-0.05c-0.23-0.03-0.41-0.07-0.54-0.12
		c-0.13-0.05-0.23-0.11-0.28-0.19c-0.05-0.08-0.08-0.17-0.08-0.28v-22.46h-7.29c-0.11,0-0.2-0.03-0.29-0.08
		c-0.09-0.05-0.16-0.14-0.21-0.25c-0.05-0.11-0.1-0.26-0.13-0.45c-0.03-0.19-0.05-0.41-0.05-0.66c0-0.25,0.02-0.48,0.05-0.67
		c0.03-0.19,0.08-0.35,0.13-0.47c0.05-0.12,0.12-0.21,0.21-0.26c0.09-0.05,0.18-0.08,0.29-0.08h18.02c0.11,0,0.2,0.03,0.29,0.08
		c0.09,0.05,0.16,0.14,0.22,0.26c0.06,0.12,0.1,0.28,0.13,0.47C449.96,216.96,449.97,217.19,449.97,217.44z"/>
	<path class="st0" d="M468.85,241.36c0,0.11-0.03,0.2-0.08,0.27c-0.05,0.07-0.14,0.14-0.26,0.19c-0.12,0.05-0.29,0.09-0.5,0.12
		c-0.21,0.03-0.48,0.04-0.8,0.04c-0.33,0-0.61-0.01-0.82-0.04c-0.21-0.03-0.38-0.07-0.5-0.12s-0.21-0.12-0.26-0.19
		c-0.05-0.07-0.08-0.16-0.08-0.27v-10.55c0-1.03-0.08-1.85-0.24-2.48c-0.16-0.63-0.39-1.17-0.7-1.62c-0.31-0.45-0.7-0.8-1.19-1.04
		s-1.05-0.36-1.69-0.36c-0.83,0-1.66,0.29-2.48,0.88c-0.83,0.59-1.7,1.45-2.6,2.58v12.59c0,0.11-0.03,0.2-0.08,0.27
		c-0.05,0.07-0.14,0.14-0.26,0.19c-0.12,0.05-0.29,0.09-0.5,0.12c-0.21,0.03-0.49,0.04-0.82,0.04c-0.32,0-0.59-0.01-0.8-0.04
		c-0.21-0.03-0.38-0.07-0.51-0.12c-0.13-0.05-0.21-0.12-0.26-0.19c-0.05-0.07-0.07-0.16-0.07-0.27v-26.75c0-0.11,0.02-0.2,0.07-0.28
		s0.13-0.15,0.26-0.2c0.13-0.05,0.3-0.09,0.51-0.12c0.21-0.03,0.48-0.04,0.8-0.04c0.33,0,0.61,0.01,0.82,0.04
		c0.21,0.03,0.38,0.07,0.5,0.12c0.12,0.05,0.21,0.12,0.26,0.2c0.05,0.08,0.08,0.17,0.08,0.28v10.79c0.95-1,1.9-1.75,2.86-2.23
		c0.96-0.49,1.93-0.73,2.9-0.73c1.2,0,2.21,0.2,3.03,0.61c0.82,0.41,1.48,0.95,1.99,1.63c0.51,0.68,0.87,1.48,1.09,2.39
		c0.22,0.91,0.33,2.02,0.33,3.31V241.36z"/>
	<path class="st0" d="M491.63,232.15c0,1.47-0.19,2.82-0.58,4.05c-0.39,1.23-0.96,2.3-1.73,3.19c-0.77,0.89-1.73,1.59-2.88,2.09
		c-1.15,0.5-2.49,0.75-4.01,0.75c-1.48,0-2.77-0.22-3.87-0.66c-1.1-0.44-2.02-1.08-2.75-1.92c-0.73-0.84-1.28-1.86-1.64-3.06
		c-0.36-1.2-0.54-2.56-0.54-4.08c0-1.47,0.19-2.82,0.57-4.05c0.38-1.23,0.95-2.3,1.72-3.19c0.77-0.89,1.72-1.59,2.87-2.08
		c1.15-0.49,2.49-0.74,4.02-0.74c1.48,0,2.77,0.22,3.87,0.66c1.1,0.44,2.02,1.08,2.75,1.92c0.73,0.84,1.28,1.86,1.65,3.06
		S491.63,230.64,491.63,232.15z M488.21,232.37c0-0.97-0.09-1.89-0.27-2.76c-0.18-0.87-0.48-1.63-0.9-2.28
		c-0.42-0.65-0.98-1.17-1.7-1.55c-0.71-0.38-1.6-0.57-2.67-0.57c-0.98,0-1.83,0.17-2.54,0.52c-0.71,0.35-1.29,0.84-1.75,1.47
		s-0.8,1.38-1.02,2.25c-0.22,0.87-0.33,1.82-0.33,2.84c0,0.99,0.09,1.92,0.27,2.78c0.18,0.87,0.48,1.63,0.91,2.27
		c0.42,0.65,0.99,1.16,1.71,1.54c0.71,0.38,1.6,0.57,2.67,0.57c0.97,0,1.81-0.17,2.52-0.52c0.71-0.35,1.3-0.83,1.76-1.46
		c0.46-0.63,0.79-1.37,1.01-2.24C488.1,234.37,488.21,233.41,488.21,232.37z"/>
	<path class="st0" d="M507.03,224.53c0,0.29-0.01,0.54-0.02,0.74c-0.01,0.2-0.04,0.36-0.08,0.47c-0.04,0.11-0.09,0.2-0.15,0.26
		c-0.06,0.06-0.14,0.09-0.25,0.09c-0.11,0-0.24-0.03-0.39-0.09c-0.15-0.06-0.33-0.12-0.52-0.18c-0.19-0.06-0.41-0.12-0.65-0.17
		c-0.24-0.05-0.5-0.08-0.78-0.08c-0.33,0-0.66,0.07-0.98,0.2c-0.32,0.13-0.66,0.35-1.01,0.66c-0.35,0.31-0.72,0.71-1.11,1.22
		c-0.39,0.51-0.81,1.13-1.28,1.86v11.85c0,0.11-0.03,0.2-0.08,0.27c-0.05,0.07-0.14,0.14-0.26,0.19c-0.12,0.05-0.29,0.09-0.5,0.12
		c-0.21,0.03-0.49,0.04-0.82,0.04c-0.32,0-0.59-0.01-0.8-0.04c-0.21-0.03-0.38-0.07-0.51-0.12c-0.13-0.05-0.21-0.12-0.26-0.19
		c-0.05-0.07-0.07-0.16-0.07-0.27v-18.02c0-0.11,0.02-0.2,0.06-0.27s0.12-0.14,0.24-0.2c0.12-0.06,0.27-0.1,0.46-0.12
		c0.19-0.02,0.43-0.03,0.74-0.03c0.29,0,0.54,0.01,0.73,0.03c0.19,0.02,0.34,0.06,0.45,0.12c0.11,0.06,0.18,0.13,0.23,0.2
		s0.07,0.16,0.07,0.27v2.62c0.49-0.72,0.96-1.31,1.39-1.76c0.43-0.45,0.84-0.81,1.23-1.07c0.39-0.26,0.77-0.44,1.15-0.54
		c0.38-0.1,0.76-0.15,1.15-0.15c0.17,0,0.37,0.01,0.59,0.03c0.22,0.02,0.45,0.06,0.69,0.11c0.24,0.05,0.46,0.11,0.65,0.18
		c0.19,0.07,0.33,0.13,0.41,0.2c0.08,0.07,0.13,0.13,0.16,0.19c0.03,0.06,0.05,0.14,0.07,0.23c0.02,0.09,0.03,0.23,0.04,0.41
		C507.02,223.97,507.03,224.22,507.03,224.53z"/>
	<path class="st0" d="M523.52,241.38c0,0.16-0.05,0.28-0.16,0.36c-0.11,0.08-0.25,0.14-0.44,0.18c-0.19,0.04-0.46,0.06-0.82,0.06
		c-0.35,0-0.62-0.02-0.83-0.06c-0.21-0.04-0.36-0.1-0.45-0.18c-0.09-0.08-0.14-0.2-0.14-0.36v-1.8c-0.79,0.84-1.67,1.5-2.63,1.96
		c-0.97,0.47-1.99,0.7-3.07,0.7c-0.95,0-1.81-0.12-2.57-0.37c-0.77-0.25-1.42-0.6-1.96-1.07c-0.54-0.47-0.96-1.04-1.26-1.72
		c-0.3-0.68-0.45-1.45-0.45-2.32c0-1.01,0.21-1.89,0.62-2.64c0.41-0.75,1.01-1.37,1.78-1.86c0.77-0.49,1.72-0.86,2.84-1.11
		c1.12-0.25,2.38-0.37,3.78-0.37h2.48v-1.4c0-0.69-0.07-1.31-0.22-1.84c-0.15-0.53-0.38-0.98-0.71-1.33s-0.75-0.62-1.27-0.8
		c-0.52-0.18-1.16-0.27-1.92-0.27c-0.81,0-1.54,0.1-2.19,0.29c-0.65,0.19-1.21,0.41-1.7,0.64c-0.49,0.23-0.89,0.45-1.22,0.64
		c-0.33,0.19-0.57,0.29-0.73,0.29c-0.11,0-0.2-0.03-0.28-0.08c-0.08-0.05-0.15-0.13-0.21-0.24c-0.06-0.11-0.1-0.24-0.13-0.41
		c-0.03-0.17-0.04-0.35-0.04-0.55c0-0.33,0.02-0.6,0.07-0.79c0.05-0.19,0.16-0.38,0.34-0.55c0.18-0.17,0.49-0.38,0.93-0.61
		c0.44-0.23,0.95-0.45,1.52-0.64c0.57-0.19,1.2-0.35,1.88-0.48c0.68-0.13,1.37-0.19,2.06-0.19c1.29,0,2.4,0.15,3.3,0.44
		c0.91,0.29,1.64,0.72,2.2,1.29c0.56,0.57,0.97,1.27,1.22,2.11c0.25,0.84,0.38,1.82,0.38,2.94V241.38z M520.24,233.15h-2.82
		c-0.91,0-1.7,0.08-2.36,0.23c-0.67,0.15-1.22,0.38-1.66,0.68c-0.44,0.3-0.76,0.66-0.97,1.08c-0.21,0.42-0.31,0.9-0.31,1.45
		c0,0.93,0.3,1.68,0.89,2.23c0.59,0.55,1.42,0.83,2.49,0.83c0.87,0,1.67-0.22,2.41-0.66c0.74-0.44,1.52-1.11,2.33-2.02V233.15z"/>
	<path class="st0" d="M542.54,238.62c0,0.23-0.01,0.42-0.02,0.59c-0.01,0.17-0.04,0.31-0.07,0.42c-0.03,0.11-0.07,0.21-0.12,0.3
		c-0.05,0.09-0.15,0.21-0.32,0.38c-0.17,0.17-0.45,0.37-0.85,0.62s-0.85,0.47-1.35,0.66c-0.5,0.19-1.04,0.35-1.63,0.47
		c-0.59,0.12-1.19,0.18-1.82,0.18c-1.29,0-2.44-0.21-3.44-0.64c-1-0.43-1.84-1.05-2.51-1.87c-0.67-0.82-1.19-1.83-1.54-3.02
		c-0.35-1.19-0.53-2.57-0.53-4.13c0-1.77,0.22-3.3,0.65-4.57s1.03-2.32,1.78-3.13c0.75-0.81,1.64-1.42,2.66-1.81
		c1.02-0.39,2.13-0.59,3.31-0.59c0.57,0,1.13,0.05,1.67,0.16c0.54,0.11,1.04,0.25,1.49,0.42c0.45,0.17,0.86,0.37,1.21,0.6
		c0.35,0.23,0.61,0.42,0.77,0.58s0.27,0.29,0.33,0.38c0.06,0.09,0.11,0.2,0.15,0.33c0.04,0.13,0.07,0.27,0.08,0.43
		c0.01,0.16,0.02,0.36,0.02,0.6c0,0.52-0.06,0.88-0.18,1.09c-0.12,0.21-0.27,0.31-0.44,0.31c-0.2,0-0.43-0.11-0.69-0.33
		c-0.26-0.22-0.59-0.46-0.99-0.73c-0.4-0.27-0.88-0.51-1.45-0.73c-0.57-0.22-1.24-0.33-2.01-0.33c-1.59,0-2.81,0.61-3.65,1.83
		c-0.85,1.22-1.27,2.99-1.27,5.32c0,1.16,0.11,2.18,0.33,3.05c0.22,0.87,0.54,1.6,0.97,2.19c0.43,0.59,0.95,1.03,1.57,1.31
		c0.62,0.29,1.33,0.43,2.13,0.43c0.76,0,1.43-0.12,2-0.36c0.57-0.24,1.07-0.5,1.49-0.79c0.42-0.29,0.77-0.55,1.06-0.78
		c0.29-0.23,0.51-0.35,0.67-0.35c0.09,0,0.17,0.03,0.24,0.08c0.07,0.05,0.12,0.14,0.17,0.27c0.05,0.13,0.08,0.29,0.1,0.48
		C542.53,238.12,542.54,238.35,542.54,238.62z"/>
	<path class="st0" d="M550.61,217.26c0,0.77-0.15,1.3-0.44,1.58c-0.29,0.28-0.83,0.42-1.62,0.42c-0.77,0-1.3-0.14-1.59-0.41
		c-0.29-0.27-0.43-0.79-0.43-1.55c0-0.77,0.15-1.3,0.44-1.58c0.29-0.28,0.83-0.42,1.62-0.42c0.77,0,1.3,0.14,1.59,0.41
		C550.47,215.98,550.61,216.5,550.61,217.26z M550.23,241.36c0,0.11-0.03,0.2-0.08,0.27c-0.05,0.07-0.14,0.14-0.26,0.19
		c-0.12,0.05-0.29,0.09-0.5,0.12c-0.21,0.03-0.49,0.04-0.82,0.04c-0.32,0-0.59-0.01-0.8-0.04c-0.21-0.03-0.38-0.07-0.51-0.12
		c-0.13-0.05-0.21-0.12-0.26-0.19c-0.05-0.07-0.07-0.16-0.07-0.27v-18.02c0-0.09,0.02-0.18,0.07-0.26s0.13-0.15,0.26-0.2
		c0.13-0.05,0.3-0.09,0.51-0.12c0.21-0.03,0.48-0.04,0.8-0.04c0.33,0,0.61,0.01,0.82,0.04c0.21,0.03,0.38,0.07,0.5,0.12
		c0.12,0.05,0.21,0.12,0.26,0.2c0.05,0.08,0.08,0.17,0.08,0.26V241.36z"/>
	<path class="st0" d="M569.29,238.62c0,0.23-0.01,0.42-0.02,0.59c-0.01,0.17-0.04,0.31-0.07,0.42c-0.03,0.11-0.07,0.21-0.12,0.3
		c-0.05,0.09-0.15,0.21-0.32,0.38c-0.17,0.17-0.45,0.37-0.85,0.62s-0.85,0.47-1.35,0.66c-0.5,0.19-1.04,0.35-1.63,0.47
		c-0.59,0.12-1.19,0.18-1.82,0.18c-1.29,0-2.44-0.21-3.44-0.64c-1-0.43-1.84-1.05-2.51-1.87c-0.67-0.82-1.19-1.83-1.54-3.02
		c-0.35-1.19-0.53-2.57-0.53-4.13c0-1.77,0.22-3.3,0.65-4.57s1.03-2.32,1.78-3.13c0.75-0.81,1.64-1.42,2.66-1.81
		c1.02-0.39,2.13-0.59,3.31-0.59c0.57,0,1.13,0.05,1.67,0.16c0.54,0.11,1.04,0.25,1.49,0.42c0.45,0.17,0.86,0.37,1.21,0.6
		c0.35,0.23,0.61,0.42,0.77,0.58s0.27,0.29,0.33,0.38c0.06,0.09,0.11,0.2,0.15,0.33c0.04,0.13,0.07,0.27,0.08,0.43
		c0.01,0.16,0.02,0.36,0.02,0.6c0,0.52-0.06,0.88-0.18,1.09c-0.12,0.21-0.27,0.31-0.44,0.31c-0.2,0-0.43-0.11-0.69-0.33
		c-0.26-0.22-0.59-0.46-0.99-0.73c-0.4-0.27-0.88-0.51-1.45-0.73c-0.57-0.22-1.24-0.33-2.01-0.33c-1.59,0-2.81,0.61-3.65,1.83
		c-0.85,1.22-1.27,2.99-1.27,5.32c0,1.16,0.11,2.18,0.33,3.05c0.22,0.87,0.54,1.6,0.97,2.19c0.43,0.59,0.95,1.03,1.57,1.31
		c0.62,0.29,1.33,0.43,2.13,0.43c0.76,0,1.43-0.12,2-0.36c0.57-0.24,1.07-0.5,1.49-0.79c0.42-0.29,0.77-0.55,1.06-0.78
		c0.29-0.23,0.51-0.35,0.67-0.35c0.09,0,0.17,0.03,0.24,0.08c0.07,0.05,0.12,0.14,0.17,0.27c0.05,0.13,0.08,0.29,0.1,0.48
		C569.28,238.12,569.29,238.35,569.29,238.62z"/>
	<path class="st0" d="M597.24,234.59c0,1.21-0.22,2.3-0.67,3.24c-0.45,0.95-1.07,1.75-1.86,2.41c-0.79,0.66-1.73,1.16-2.8,1.49
		s-2.23,0.5-3.47,0.5c-0.87,0-1.67-0.07-2.41-0.22c-0.74-0.15-1.4-0.33-1.98-0.54c-0.58-0.21-1.07-0.43-1.46-0.66
		c-0.39-0.23-0.67-0.42-0.82-0.58c-0.15-0.16-0.27-0.36-0.34-0.61c-0.07-0.25-0.11-0.58-0.11-0.99c0-0.29,0.01-0.54,0.04-0.73
		c0.03-0.19,0.07-0.35,0.12-0.47c0.05-0.12,0.12-0.2,0.2-0.25c0.08-0.05,0.17-0.07,0.28-0.07c0.19,0,0.45,0.11,0.79,0.34
		c0.34,0.23,0.78,0.47,1.31,0.74c0.53,0.27,1.18,0.52,1.93,0.75c0.75,0.23,1.63,0.35,2.61,0.35c0.75,0,1.43-0.1,2.05-0.3
		c0.62-0.2,1.15-0.48,1.6-0.85c0.45-0.37,0.79-0.82,1.03-1.35c0.24-0.53,0.36-1.14,0.36-1.82c0-0.73-0.17-1.36-0.5-1.88
		c-0.33-0.52-0.77-0.98-1.32-1.37c-0.55-0.39-1.17-0.75-1.87-1.08c-0.7-0.33-1.42-0.66-2.15-1c-0.73-0.34-1.45-0.72-2.14-1.13
		c-0.69-0.41-1.31-0.9-1.86-1.46c-0.55-0.56-0.99-1.22-1.33-1.97c-0.34-0.75-0.51-1.66-0.51-2.71c0-1.08,0.2-2.04,0.59-2.89
		s0.94-1.56,1.64-2.13c0.7-0.57,1.54-1.01,2.5-1.31c0.97-0.3,2.01-0.45,3.13-0.45c0.57,0,1.15,0.05,1.73,0.15
		c0.58,0.1,1.13,0.23,1.64,0.4c0.51,0.17,0.97,0.35,1.37,0.56c0.4,0.21,0.66,0.37,0.79,0.5s0.21,0.23,0.25,0.3
		c0.04,0.07,0.07,0.17,0.1,0.28c0.03,0.11,0.05,0.25,0.06,0.41c0.01,0.16,0.02,0.37,0.02,0.62c0,0.24-0.01,0.45-0.03,0.64
		c-0.02,0.19-0.05,0.34-0.09,0.47s-0.1,0.22-0.17,0.28c-0.07,0.06-0.16,0.09-0.25,0.09c-0.15,0-0.38-0.09-0.69-0.28
		c-0.31-0.19-0.7-0.4-1.15-0.63c-0.45-0.23-0.99-0.45-1.61-0.64c-0.62-0.19-1.32-0.29-2.09-0.29c-0.72,0-1.35,0.1-1.88,0.29
		c-0.53,0.19-0.97,0.45-1.32,0.77c-0.35,0.32-0.61,0.7-0.78,1.14c-0.17,0.44-0.26,0.91-0.26,1.4c0,0.72,0.17,1.34,0.5,1.86
		c0.33,0.52,0.78,0.98,1.33,1.38c0.55,0.4,1.18,0.77,1.89,1.1c0.71,0.33,1.43,0.67,2.16,1.01c0.73,0.34,1.45,0.71,2.16,1.12
		c0.71,0.41,1.34,0.89,1.89,1.44s1,1.21,1.34,1.96C597.07,232.68,597.24,233.57,597.24,234.59z"/>
	<path class="st0" d="M617.21,241.36c0,0.11-0.02,0.2-0.07,0.27c-0.05,0.07-0.13,0.14-0.25,0.19s-0.28,0.09-0.47,0.12
		c-0.19,0.03-0.43,0.04-0.71,0.04c-0.31,0-0.56-0.01-0.75-0.04c-0.19-0.03-0.35-0.07-0.46-0.12s-0.19-0.12-0.23-0.19
		c-0.04-0.07-0.06-0.16-0.06-0.27v-2.38c-1.03,1.13-2.04,1.96-3.04,2.48s-2.02,0.78-3.04,0.78c-1.2,0-2.21-0.2-3.03-0.6
		c-0.82-0.4-1.48-0.94-1.99-1.63c-0.51-0.69-0.87-1.49-1.09-2.4c-0.22-0.91-0.33-2.03-0.33-3.33v-10.93c0-0.11,0.02-0.2,0.07-0.27
		c0.05-0.07,0.14-0.14,0.27-0.2c0.13-0.06,0.31-0.1,0.52-0.12c0.21-0.02,0.48-0.03,0.8-0.03s0.59,0.01,0.8,0.03
		c0.21,0.02,0.38,0.06,0.51,0.12c0.13,0.06,0.22,0.13,0.27,0.2c0.05,0.07,0.08,0.16,0.08,0.27v10.49c0,1.05,0.08,1.9,0.23,2.53
		c0.15,0.63,0.39,1.17,0.7,1.62c0.31,0.45,0.71,0.79,1.19,1.04c0.48,0.25,1.04,0.37,1.68,0.37c0.83,0,1.65-0.29,2.47-0.88
		c0.82-0.59,1.69-1.45,2.61-2.58v-12.59c0-0.11,0.02-0.2,0.07-0.27c0.05-0.07,0.14-0.14,0.27-0.2c0.13-0.06,0.3-0.1,0.51-0.12
		c0.21-0.02,0.48-0.03,0.81-0.03c0.32,0,0.59,0.01,0.8,0.03c0.21,0.02,0.38,0.06,0.5,0.12c0.12,0.06,0.21,0.13,0.27,0.2
		c0.06,0.07,0.09,0.16,0.09,0.27V241.36z"/>
	<path class="st0" d="M633.85,224.53c0,0.29-0.01,0.54-0.02,0.74c-0.01,0.2-0.04,0.36-0.08,0.47c-0.04,0.11-0.09,0.2-0.15,0.26
		c-0.06,0.06-0.14,0.09-0.25,0.09c-0.11,0-0.24-0.03-0.39-0.09c-0.15-0.06-0.33-0.12-0.52-0.18c-0.19-0.06-0.41-0.12-0.65-0.17
		c-0.24-0.05-0.5-0.08-0.78-0.08c-0.33,0-0.66,0.07-0.98,0.2c-0.32,0.13-0.66,0.35-1.01,0.66c-0.35,0.31-0.72,0.71-1.11,1.22
		c-0.39,0.51-0.81,1.13-1.28,1.86v11.85c0,0.11-0.03,0.2-0.08,0.27c-0.05,0.07-0.14,0.14-0.26,0.19c-0.12,0.05-0.29,0.09-0.5,0.12
		c-0.21,0.03-0.49,0.04-0.82,0.04c-0.32,0-0.59-0.01-0.8-0.04c-0.21-0.03-0.38-0.07-0.51-0.12c-0.13-0.05-0.21-0.12-0.26-0.19
		c-0.05-0.07-0.07-0.16-0.07-0.27v-18.02c0-0.11,0.02-0.2,0.06-0.27s0.12-0.14,0.24-0.2c0.12-0.06,0.27-0.1,0.46-0.12
		c0.19-0.02,0.43-0.03,0.74-0.03c0.29,0,0.54,0.01,0.73,0.03c0.19,0.02,0.34,0.06,0.45,0.12c0.11,0.06,0.18,0.13,0.23,0.2
		s0.07,0.16,0.07,0.27v2.62c0.49-0.72,0.96-1.31,1.39-1.76c0.43-0.45,0.84-0.81,1.23-1.07c0.39-0.26,0.77-0.44,1.15-0.54
		c0.38-0.1,0.76-0.15,1.15-0.15c0.17,0,0.37,0.01,0.59,0.03c0.22,0.02,0.45,0.06,0.69,0.11c0.24,0.05,0.46,0.11,0.65,0.18
		c0.19,0.07,0.33,0.13,0.41,0.2c0.08,0.07,0.13,0.13,0.16,0.19c0.03,0.06,0.05,0.14,0.07,0.23c0.02,0.09,0.03,0.23,0.04,0.41
		C633.85,223.97,633.85,224.22,633.85,224.53z"/>
	<path class="st0" d="M652.11,224.17c0,0.47-0.06,0.8-0.19,1.01c-0.13,0.21-0.29,0.31-0.49,0.31h-2.58
		c0.47,0.48,0.79,1.01,0.98,1.59c0.19,0.58,0.28,1.18,0.28,1.81c0,1.04-0.17,1.96-0.5,2.76c-0.33,0.8-0.81,1.48-1.43,2.03
		c-0.62,0.55-1.36,0.98-2.21,1.27c-0.85,0.29-1.8,0.44-2.84,0.44c-0.73,0-1.43-0.1-2.09-0.29c-0.66-0.19-1.17-0.44-1.53-0.73
		c-0.24,0.24-0.44,0.51-0.59,0.82c-0.15,0.31-0.23,0.66-0.23,1.06c0,0.47,0.22,0.85,0.65,1.16c0.43,0.31,1.01,0.47,1.73,0.5
		l4.71,0.2c0.89,0.03,1.71,0.15,2.46,0.37c0.75,0.22,1.39,0.53,1.94,0.94c0.55,0.41,0.97,0.91,1.28,1.5
		c0.31,0.59,0.46,1.28,0.46,2.07c0,0.83-0.17,1.62-0.52,2.36c-0.35,0.75-0.88,1.4-1.59,1.97c-0.71,0.57-1.63,1.01-2.73,1.34
		c-1.11,0.33-2.42,0.49-3.92,0.49c-1.45,0-2.69-0.12-3.71-0.37c-1.02-0.25-1.86-0.58-2.51-1.01c-0.65-0.43-1.13-0.94-1.42-1.53
		c-0.29-0.59-0.44-1.24-0.44-1.93c0-0.44,0.05-0.87,0.16-1.28c0.11-0.41,0.27-0.81,0.49-1.18c0.22-0.37,0.49-0.73,0.82-1.07
		c0.33-0.34,0.7-0.68,1.13-1.01c-0.65-0.33-1.14-0.75-1.45-1.26c-0.31-0.51-0.47-1.05-0.47-1.64c0-0.81,0.17-1.54,0.5-2.18
		c0.33-0.64,0.75-1.21,1.24-1.72c-0.41-0.49-0.74-1.05-0.98-1.67c-0.24-0.62-0.36-1.37-0.36-2.25c0-1.03,0.17-1.95,0.52-2.76
		c0.35-0.81,0.83-1.5,1.44-2.06c0.61-0.56,1.35-0.99,2.21-1.29c0.86-0.3,1.8-0.45,2.81-0.45c0.55,0,1.06,0.03,1.53,0.09
		c0.47,0.06,0.92,0.14,1.33,0.25h5.45c0.23,0,0.4,0.11,0.51,0.33C652.05,223.37,652.11,223.71,652.11,224.17z M648.61,243.18
		c0-0.77-0.32-1.37-0.95-1.79c-0.63-0.42-1.49-0.64-2.57-0.67l-4.67-0.16c-0.43,0.33-0.78,0.65-1.05,0.95
		c-0.27,0.3-0.49,0.59-0.65,0.86c-0.16,0.27-0.27,0.54-0.33,0.81c-0.06,0.27-0.09,0.54-0.09,0.82c0,0.87,0.44,1.52,1.32,1.97
		c0.88,0.45,2.11,0.67,3.68,0.67c1,0,1.84-0.1,2.51-0.29s1.22-0.45,1.63-0.77c0.41-0.32,0.71-0.69,0.89-1.1
		C648.52,244.07,648.61,243.64,648.61,243.18z M646.95,228.91c0-1.23-0.34-2.18-1.01-2.87s-1.63-1.03-2.87-1.03
		c-0.64,0-1.2,0.11-1.67,0.32c-0.47,0.21-0.87,0.51-1.18,0.88c-0.31,0.37-0.55,0.8-0.7,1.29c-0.15,0.49-0.23,1-0.23,1.53
		c0,1.19,0.34,2.12,1.01,2.8c0.67,0.68,1.62,1.02,2.83,1.02c0.65,0,1.22-0.1,1.7-0.31c0.48-0.21,0.88-0.49,1.19-0.86
		s0.55-0.79,0.7-1.27C646.87,229.93,646.95,229.43,646.95,228.91z"/>
	<path class="st0" d="M671.39,231.57c0,0.52-0.13,0.89-0.39,1.11c-0.26,0.22-0.56,0.33-0.9,0.33h-11.87c0,1,0.1,1.9,0.3,2.7
		s0.54,1.49,1.01,2.06c0.47,0.57,1.08,1.01,1.83,1.32c0.75,0.31,1.67,0.46,2.76,0.46c0.86,0,1.62-0.07,2.29-0.21
		c0.67-0.14,1.25-0.3,1.74-0.47c0.49-0.17,0.89-0.33,1.21-0.47c0.32-0.14,0.55-0.21,0.71-0.21c0.09,0,0.18,0.02,0.25,0.07
		c0.07,0.05,0.13,0.12,0.17,0.21c0.04,0.09,0.07,0.22,0.09,0.39c0.02,0.17,0.03,0.37,0.03,0.61c0,0.17-0.01,0.32-0.02,0.45
		c-0.01,0.13-0.03,0.24-0.05,0.34c-0.02,0.1-0.05,0.19-0.1,0.27s-0.11,0.16-0.18,0.23c-0.07,0.07-0.29,0.19-0.65,0.36
		c-0.36,0.17-0.83,0.33-1.4,0.49c-0.57,0.16-1.24,0.3-1.99,0.43c-0.75,0.13-1.56,0.19-2.41,0.19c-1.48,0-2.78-0.21-3.89-0.62
		s-2.05-1.03-2.81-1.84c-0.76-0.81-1.33-1.83-1.72-3.06c-0.39-1.23-0.58-2.66-0.58-4.29c0-1.55,0.2-2.94,0.6-4.17
		c0.4-1.23,0.98-2.28,1.73-3.14c0.75-0.86,1.66-1.52,2.73-1.98c1.07-0.46,2.26-0.69,3.58-0.69c1.42,0,2.62,0.23,3.61,0.68
		c0.99,0.45,1.81,1.06,2.45,1.83s1.11,1.67,1.41,2.7c0.3,1.04,0.45,2.14,0.45,3.31V231.57z M668.07,230.59
		c0.04-1.73-0.35-3.1-1.16-4.08c-0.81-0.99-2.02-1.48-3.62-1.48c-0.82,0-1.54,0.15-2.16,0.46c-0.62,0.31-1.13,0.71-1.55,1.22
		c-0.42,0.51-0.74,1.1-0.97,1.77s-0.36,1.38-0.38,2.11H668.07z"/>
	<path class="st0" d="M686.94,224.53c0,0.29-0.01,0.54-0.02,0.74c-0.01,0.2-0.04,0.36-0.08,0.47c-0.04,0.11-0.09,0.2-0.15,0.26
		c-0.06,0.06-0.14,0.09-0.25,0.09c-0.11,0-0.24-0.03-0.39-0.09c-0.15-0.06-0.33-0.12-0.52-0.18c-0.19-0.06-0.41-0.12-0.65-0.17
		c-0.24-0.05-0.5-0.08-0.78-0.08c-0.33,0-0.66,0.07-0.98,0.2c-0.32,0.13-0.66,0.35-1.01,0.66c-0.35,0.31-0.72,0.71-1.11,1.22
		c-0.39,0.51-0.81,1.13-1.28,1.86v11.85c0,0.11-0.03,0.2-0.08,0.27c-0.05,0.07-0.14,0.14-0.26,0.19c-0.12,0.05-0.29,0.09-0.5,0.12
		c-0.21,0.03-0.49,0.04-0.82,0.04c-0.32,0-0.59-0.01-0.8-0.04c-0.21-0.03-0.38-0.07-0.51-0.12c-0.13-0.05-0.21-0.12-0.26-0.19
		c-0.05-0.07-0.07-0.16-0.07-0.27v-18.02c0-0.11,0.02-0.2,0.06-0.27s0.12-0.14,0.24-0.2c0.12-0.06,0.27-0.1,0.46-0.12
		c0.19-0.02,0.43-0.03,0.74-0.03c0.29,0,0.54,0.01,0.73,0.03c0.19,0.02,0.34,0.06,0.45,0.12c0.11,0.06,0.18,0.13,0.23,0.2
		s0.07,0.16,0.07,0.27v2.62c0.49-0.72,0.96-1.31,1.39-1.76c0.43-0.45,0.84-0.81,1.23-1.07c0.39-0.26,0.77-0.44,1.15-0.54
		c0.38-0.1,0.76-0.15,1.15-0.15c0.17,0,0.37,0.01,0.59,0.03c0.22,0.02,0.45,0.06,0.69,0.11c0.24,0.05,0.46,0.11,0.65,0.18
		c0.19,0.07,0.33,0.13,0.41,0.2c0.08,0.07,0.13,0.13,0.16,0.19c0.03,0.06,0.05,0.14,0.07,0.23c0.02,0.09,0.03,0.23,0.04,0.41
		C686.94,223.97,686.94,224.22,686.94,224.53z"/>
	<path class="st0" d="M699.12,241.86l-2.4,6.63c-0.08,0.21-0.28,0.38-0.61,0.49c-0.33,0.11-0.82,0.17-1.49,0.17
		c-0.35,0-0.63-0.02-0.84-0.05c-0.21-0.03-0.38-0.09-0.49-0.17c-0.11-0.08-0.18-0.19-0.19-0.32c-0.01-0.13,0.02-0.29,0.1-0.48
		l2.48-6.27c-0.12-0.05-0.23-0.14-0.34-0.26c-0.11-0.12-0.18-0.25-0.22-0.38L688.68,224c-0.11-0.28-0.16-0.5-0.16-0.66
		s0.05-0.29,0.16-0.38c0.11-0.09,0.28-0.16,0.52-0.19c0.24-0.03,0.56-0.05,0.96-0.05s0.71,0.01,0.94,0.03
		c0.23,0.02,0.41,0.06,0.54,0.11c0.13,0.05,0.23,0.13,0.29,0.23c0.06,0.1,0.12,0.24,0.19,0.41l5.15,14.45h0.06l4.96-14.53
		c0.08-0.25,0.18-0.42,0.29-0.49c0.11-0.07,0.28-0.13,0.51-0.16c0.23-0.03,0.55-0.05,0.98-0.05c0.37,0,0.68,0.02,0.92,0.05
		c0.24,0.03,0.42,0.1,0.53,0.19c0.11,0.09,0.17,0.22,0.17,0.38s-0.04,0.36-0.12,0.6L699.12,241.86z"/>
	<path class="st0" d="M738.51,240.64c0.11,0.29,0.16,0.53,0.17,0.71c0.01,0.18-0.04,0.32-0.15,0.41c-0.11,0.09-0.28,0.15-0.53,0.18
		c-0.25,0.03-0.58,0.04-0.99,0.04c-0.41,0-0.74-0.01-0.99-0.03c-0.25-0.02-0.43-0.05-0.56-0.1c-0.13-0.05-0.22-0.11-0.28-0.19
		c-0.06-0.08-0.12-0.18-0.17-0.3l-2.22-6.31h-10.77l-2.12,6.23c-0.04,0.12-0.09,0.22-0.16,0.31c-0.07,0.09-0.16,0.16-0.29,0.22
		c-0.13,0.06-0.31,0.1-0.54,0.13c-0.23,0.03-0.54,0.04-0.91,0.04c-0.39,0-0.7-0.02-0.95-0.05c-0.25-0.03-0.42-0.1-0.52-0.19
		c-0.1-0.09-0.15-0.23-0.14-0.41c0.01-0.18,0.06-0.42,0.17-0.71l8.69-24.06c0.05-0.15,0.12-0.27,0.21-0.36
		c0.09-0.09,0.21-0.17,0.38-0.22c0.17-0.05,0.38-0.09,0.64-0.11c0.26-0.02,0.59-0.03,0.99-0.03c0.43,0,0.78,0.01,1.06,0.03
		c0.28,0.02,0.51,0.06,0.68,0.11c0.17,0.05,0.31,0.13,0.4,0.23c0.09,0.1,0.17,0.22,0.22,0.37L738.51,240.64z M727.36,219.4h-0.02
		l-4.46,12.91h9.01L727.36,219.4z"/>
	<path class="st0" d="M753.77,236.46c0,0.92-0.17,1.74-0.51,2.46c-0.34,0.72-0.82,1.33-1.45,1.82c-0.63,0.49-1.38,0.87-2.24,1.12
		c-0.87,0.25-1.82,0.38-2.86,0.38c-0.64,0-1.25-0.05-1.83-0.15c-0.58-0.1-1.1-0.23-1.56-0.38c-0.46-0.15-0.85-0.31-1.17-0.48
		c-0.32-0.17-0.55-0.32-0.7-0.45c-0.15-0.13-0.25-0.32-0.32-0.56c-0.07-0.24-0.1-0.57-0.1-0.98c0-0.25,0.01-0.47,0.04-0.64
		c0.03-0.17,0.06-0.31,0.1-0.42c0.04-0.11,0.1-0.18,0.17-0.23c0.07-0.05,0.16-0.07,0.25-0.07c0.15,0,0.36,0.09,0.65,0.27
		c0.29,0.18,0.64,0.38,1.06,0.59c0.42,0.21,0.92,0.41,1.49,0.59c0.57,0.18,1.23,0.27,1.98,0.27c0.56,0,1.07-0.06,1.52-0.18
		c0.45-0.12,0.85-0.3,1.18-0.53c0.33-0.23,0.59-0.53,0.77-0.89c0.18-0.36,0.27-0.79,0.27-1.28c0-0.51-0.13-0.93-0.39-1.28
		c-0.26-0.35-0.6-0.65-1.03-0.92c-0.43-0.27-0.91-0.5-1.44-0.71c-0.53-0.21-1.08-0.42-1.65-0.65c-0.57-0.23-1.12-0.48-1.66-0.77
		c-0.54-0.29-1.02-0.64-1.45-1.05c-0.43-0.41-0.77-0.91-1.03-1.48c-0.26-0.57-0.39-1.26-0.39-2.06c0-0.71,0.14-1.38,0.41-2.03
		c0.27-0.65,0.68-1.21,1.23-1.7c0.55-0.49,1.23-0.88,2.05-1.17c0.82-0.29,1.78-0.44,2.87-0.44c0.48,0,0.96,0.04,1.44,0.12
		s0.91,0.18,1.3,0.3c0.39,0.12,0.72,0.25,0.99,0.39c0.27,0.14,0.48,0.26,0.62,0.37c0.14,0.11,0.23,0.2,0.28,0.28s0.08,0.17,0.1,0.27
		c0.02,0.1,0.04,0.22,0.06,0.37c0.02,0.15,0.03,0.33,0.03,0.54c0,0.23-0.01,0.42-0.03,0.59c-0.02,0.17-0.05,0.3-0.1,0.41
		c-0.05,0.11-0.1,0.18-0.17,0.23c-0.07,0.05-0.14,0.07-0.22,0.07c-0.12,0-0.29-0.07-0.52-0.22c-0.23-0.15-0.52-0.3-0.88-0.47
		c-0.36-0.17-0.78-0.32-1.27-0.47c-0.49-0.15-1.04-0.22-1.67-0.22c-0.56,0-1.05,0.06-1.48,0.19c-0.43,0.13-0.78,0.31-1.05,0.54
		c-0.27,0.23-0.48,0.51-0.62,0.83c-0.14,0.32-0.21,0.67-0.21,1.04c0,0.52,0.13,0.96,0.4,1.31c0.27,0.35,0.61,0.66,1.04,0.93
		c0.43,0.27,0.91,0.51,1.46,0.72c0.55,0.21,1.1,0.43,1.67,0.66c0.57,0.23,1.13,0.48,1.68,0.76c0.55,0.28,1.04,0.62,1.47,1.02
		c0.43,0.4,0.77,0.88,1.03,1.44C753.64,235.02,753.77,235.68,753.77,236.46z"/>
	<path class="st0" d="M769.8,236.46c0,0.92-0.17,1.74-0.51,2.46c-0.34,0.72-0.82,1.33-1.45,1.82c-0.63,0.49-1.38,0.87-2.24,1.12
		c-0.87,0.25-1.82,0.38-2.86,0.38c-0.64,0-1.25-0.05-1.83-0.15c-0.58-0.1-1.1-0.23-1.56-0.38c-0.46-0.15-0.85-0.31-1.17-0.48
		c-0.32-0.17-0.55-0.32-0.7-0.45c-0.15-0.13-0.25-0.32-0.32-0.56c-0.07-0.24-0.1-0.57-0.1-0.98c0-0.25,0.01-0.47,0.04-0.64
		c0.03-0.17,0.06-0.31,0.1-0.42c0.04-0.11,0.1-0.18,0.17-0.23c0.07-0.05,0.16-0.07,0.25-0.07c0.15,0,0.36,0.09,0.65,0.27
		c0.29,0.18,0.64,0.38,1.06,0.59c0.42,0.21,0.92,0.41,1.49,0.59c0.57,0.18,1.23,0.27,1.98,0.27c0.56,0,1.07-0.06,1.52-0.18
		c0.45-0.12,0.85-0.3,1.18-0.53c0.33-0.23,0.59-0.53,0.77-0.89c0.18-0.36,0.27-0.79,0.27-1.28c0-0.51-0.13-0.93-0.39-1.28
		c-0.26-0.35-0.6-0.65-1.03-0.92c-0.43-0.27-0.91-0.5-1.44-0.71c-0.53-0.21-1.08-0.42-1.65-0.65c-0.57-0.23-1.12-0.48-1.66-0.77
		c-0.54-0.29-1.02-0.64-1.45-1.05c-0.43-0.41-0.77-0.91-1.03-1.48c-0.26-0.57-0.39-1.26-0.39-2.06c0-0.71,0.14-1.38,0.41-2.03
		c0.27-0.65,0.68-1.21,1.23-1.7c0.55-0.49,1.23-0.88,2.05-1.17c0.82-0.29,1.78-0.44,2.87-0.44c0.48,0,0.96,0.04,1.44,0.12
		s0.91,0.18,1.3,0.3c0.39,0.12,0.72,0.25,0.99,0.39c0.27,0.14,0.48,0.26,0.62,0.37c0.14,0.11,0.23,0.2,0.28,0.28s0.08,0.17,0.1,0.27
		c0.02,0.1,0.04,0.22,0.06,0.37c0.02,0.15,0.03,0.33,0.03,0.54c0,0.23-0.01,0.42-0.03,0.59c-0.02,0.17-0.05,0.3-0.1,0.41
		c-0.05,0.11-0.1,0.18-0.17,0.23c-0.07,0.05-0.14,0.07-0.22,0.07c-0.12,0-0.29-0.07-0.52-0.22c-0.23-0.15-0.52-0.3-0.88-0.47
		c-0.36-0.17-0.78-0.32-1.27-0.47c-0.49-0.15-1.04-0.22-1.67-0.22c-0.56,0-1.05,0.06-1.48,0.19c-0.43,0.13-0.78,0.31-1.05,0.54
		c-0.27,0.23-0.48,0.51-0.62,0.83c-0.14,0.32-0.21,0.67-0.21,1.04c0,0.52,0.13,0.96,0.4,1.31c0.27,0.35,0.61,0.66,1.04,0.93
		c0.43,0.27,0.91,0.51,1.46,0.72c0.55,0.21,1.1,0.43,1.67,0.66c0.57,0.23,1.13,0.48,1.68,0.76c0.55,0.28,1.04,0.62,1.47,1.02
		c0.43,0.4,0.77,0.88,1.03,1.44C769.67,235.02,769.8,235.68,769.8,236.46z"/>
	<path class="st0" d="M791.28,232.15c0,1.47-0.19,2.82-0.58,4.05c-0.39,1.23-0.96,2.3-1.73,3.19c-0.77,0.89-1.73,1.59-2.88,2.09
		c-1.15,0.5-2.49,0.75-4.01,0.75c-1.48,0-2.77-0.22-3.87-0.66c-1.1-0.44-2.02-1.08-2.75-1.92c-0.73-0.84-1.28-1.86-1.64-3.06
		c-0.36-1.2-0.54-2.56-0.54-4.08c0-1.47,0.19-2.82,0.57-4.05c0.38-1.23,0.95-2.3,1.72-3.19c0.77-0.89,1.72-1.59,2.87-2.08
		c1.15-0.49,2.49-0.74,4.02-0.74c1.48,0,2.77,0.22,3.87,0.66c1.1,0.44,2.02,1.08,2.75,1.92c0.73,0.84,1.28,1.86,1.65,3.06
		S791.28,230.64,791.28,232.15z M787.86,232.37c0-0.97-0.09-1.89-0.27-2.76c-0.18-0.87-0.48-1.63-0.9-2.28
		c-0.42-0.65-0.98-1.17-1.7-1.55c-0.71-0.38-1.6-0.57-2.67-0.57c-0.98,0-1.83,0.17-2.54,0.52c-0.71,0.35-1.29,0.84-1.75,1.47
		s-0.8,1.38-1.02,2.25c-0.22,0.87-0.33,1.82-0.33,2.84c0,0.99,0.09,1.92,0.27,2.78c0.18,0.87,0.48,1.63,0.91,2.27
		c0.42,0.65,0.99,1.16,1.71,1.54c0.71,0.38,1.6,0.57,2.67,0.57c0.97,0,1.81-0.17,2.52-0.52c0.71-0.35,1.3-0.83,1.76-1.46
		c0.46-0.63,0.79-1.37,1.01-2.24C787.75,234.37,787.86,233.41,787.86,232.37z"/>
	<path class="st0" d="M809.1,238.62c0,0.23-0.01,0.42-0.02,0.59c-0.01,0.17-0.04,0.31-0.07,0.42c-0.03,0.11-0.07,0.21-0.12,0.3
		c-0.05,0.09-0.15,0.21-0.32,0.38c-0.17,0.17-0.45,0.37-0.85,0.62s-0.85,0.47-1.35,0.66c-0.5,0.19-1.04,0.35-1.63,0.47
		c-0.59,0.12-1.19,0.18-1.82,0.18c-1.29,0-2.44-0.21-3.44-0.64c-1-0.43-1.84-1.05-2.51-1.87c-0.67-0.82-1.19-1.83-1.54-3.02
		c-0.35-1.19-0.53-2.57-0.53-4.13c0-1.77,0.22-3.3,0.65-4.57s1.03-2.32,1.78-3.13c0.75-0.81,1.64-1.42,2.66-1.81
		c1.02-0.39,2.13-0.59,3.31-0.59c0.57,0,1.13,0.05,1.67,0.16c0.54,0.11,1.04,0.25,1.49,0.42c0.45,0.17,0.86,0.37,1.21,0.6
		c0.35,0.23,0.61,0.42,0.77,0.58s0.27,0.29,0.33,0.38c0.06,0.09,0.11,0.2,0.15,0.33c0.04,0.13,0.07,0.27,0.08,0.43
		c0.01,0.16,0.02,0.36,0.02,0.6c0,0.52-0.06,0.88-0.18,1.09c-0.12,0.21-0.27,0.31-0.44,0.31c-0.2,0-0.43-0.11-0.69-0.33
		c-0.26-0.22-0.59-0.46-0.99-0.73c-0.4-0.27-0.88-0.51-1.45-0.73c-0.57-0.22-1.24-0.33-2.01-0.33c-1.59,0-2.81,0.61-3.65,1.83
		c-0.85,1.22-1.27,2.99-1.27,5.32c0,1.16,0.11,2.18,0.33,3.05c0.22,0.87,0.54,1.6,0.97,2.19c0.43,0.59,0.95,1.03,1.57,1.31
		c0.62,0.29,1.33,0.43,2.13,0.43c0.76,0,1.43-0.12,2-0.36c0.57-0.24,1.07-0.5,1.49-0.79c0.42-0.29,0.77-0.55,1.06-0.78
		c0.29-0.23,0.51-0.35,0.67-0.35c0.09,0,0.17,0.03,0.24,0.08c0.07,0.05,0.12,0.14,0.17,0.27c0.05,0.13,0.08,0.29,0.1,0.48
		C809.09,238.12,809.1,238.35,809.1,238.62z"/>
	<path class="st0" d="M817.17,217.26c0,0.77-0.15,1.3-0.44,1.58c-0.29,0.28-0.83,0.42-1.62,0.42c-0.77,0-1.3-0.14-1.59-0.41
		c-0.29-0.27-0.43-0.79-0.43-1.55c0-0.77,0.15-1.3,0.44-1.58c0.29-0.28,0.83-0.42,1.62-0.42c0.77,0,1.3,0.14,1.59,0.41
		C817.03,215.98,817.17,216.5,817.17,217.26z M816.79,241.36c0,0.11-0.03,0.2-0.08,0.27c-0.05,0.07-0.14,0.14-0.26,0.19
		c-0.12,0.05-0.29,0.09-0.5,0.12c-0.21,0.03-0.49,0.04-0.82,0.04c-0.32,0-0.59-0.01-0.8-0.04c-0.21-0.03-0.38-0.07-0.51-0.12
		c-0.13-0.05-0.21-0.12-0.26-0.19c-0.05-0.07-0.07-0.16-0.07-0.27v-18.02c0-0.09,0.02-0.18,0.07-0.26s0.13-0.15,0.26-0.2
		c0.13-0.05,0.3-0.09,0.51-0.12c0.21-0.03,0.48-0.04,0.8-0.04c0.33,0,0.61,0.01,0.82,0.04c0.21,0.03,0.38,0.07,0.5,0.12
		c0.12,0.05,0.21,0.12,0.26,0.2c0.05,0.08,0.08,0.17,0.08,0.26V241.36z"/>
	<path class="st0" d="M836.47,241.38c0,0.16-0.05,0.28-0.16,0.36c-0.11,0.08-0.25,0.14-0.44,0.18c-0.19,0.04-0.46,0.06-0.82,0.06
		c-0.35,0-0.62-0.02-0.83-0.06c-0.21-0.04-0.36-0.1-0.45-0.18c-0.09-0.08-0.14-0.2-0.14-0.36v-1.8c-0.79,0.84-1.67,1.5-2.63,1.96
		c-0.97,0.47-1.99,0.7-3.07,0.7c-0.95,0-1.81-0.12-2.57-0.37c-0.77-0.25-1.42-0.6-1.96-1.07c-0.54-0.47-0.96-1.04-1.26-1.72
		c-0.3-0.68-0.45-1.45-0.45-2.32c0-1.01,0.21-1.89,0.62-2.64c0.41-0.75,1.01-1.37,1.78-1.86c0.77-0.49,1.72-0.86,2.84-1.11
		c1.12-0.25,2.38-0.37,3.78-0.37h2.48v-1.4c0-0.69-0.07-1.31-0.22-1.84c-0.15-0.53-0.38-0.98-0.71-1.33s-0.75-0.62-1.27-0.8
		c-0.52-0.18-1.16-0.27-1.92-0.27c-0.81,0-1.54,0.1-2.19,0.29c-0.65,0.19-1.21,0.41-1.7,0.64c-0.49,0.23-0.89,0.45-1.22,0.64
		c-0.33,0.19-0.57,0.29-0.73,0.29c-0.11,0-0.2-0.03-0.28-0.08c-0.08-0.05-0.15-0.13-0.21-0.24c-0.06-0.11-0.1-0.24-0.13-0.41
		c-0.03-0.17-0.04-0.35-0.04-0.55c0-0.33,0.02-0.6,0.07-0.79c0.05-0.19,0.16-0.38,0.34-0.55c0.18-0.17,0.49-0.38,0.93-0.61
		c0.44-0.23,0.95-0.45,1.52-0.64c0.57-0.19,1.2-0.35,1.88-0.48c0.68-0.13,1.37-0.19,2.06-0.19c1.29,0,2.4,0.15,3.3,0.44
		c0.91,0.29,1.64,0.72,2.2,1.29c0.56,0.57,0.97,1.27,1.22,2.11c0.25,0.84,0.38,1.82,0.38,2.94V241.38z M833.19,233.15h-2.82
		c-0.91,0-1.7,0.08-2.36,0.23c-0.67,0.15-1.22,0.38-1.66,0.68c-0.44,0.3-0.76,0.66-0.97,1.08c-0.21,0.42-0.31,0.9-0.31,1.45
		c0,0.93,0.3,1.68,0.89,2.23c0.59,0.55,1.42,0.83,2.49,0.83c0.87,0,1.67-0.22,2.41-0.66c0.74-0.44,1.52-1.11,2.33-2.02V233.15z"/>
	<path class="st0" d="M857.83,222.82c0.4,0,0.67,0.09,0.82,0.27c0.15,0.18,0.22,0.44,0.22,0.79v17.48c0,0.11-0.03,0.2-0.08,0.27
		c-0.05,0.07-0.14,0.14-0.27,0.19s-0.3,0.09-0.51,0.12c-0.21,0.03-0.47,0.04-0.78,0.04c-0.33,0-0.61-0.01-0.82-0.04
		c-0.21-0.03-0.38-0.07-0.51-0.12c-0.13-0.05-0.22-0.12-0.27-0.19c-0.05-0.07-0.08-0.16-0.08-0.27v-15.8h-9.31v10.05
		c0,1.24,0.18,2.18,0.55,2.81c0.37,0.63,1.02,0.95,1.97,0.95c0.31,0,0.58-0.03,0.82-0.09c0.24-0.06,0.45-0.12,0.64-0.19
		c0.19-0.07,0.35-0.13,0.48-0.19c0.13-0.06,0.25-0.09,0.36-0.09c0.07,0,0.13,0.02,0.19,0.05c0.06,0.03,0.11,0.1,0.14,0.19
		c0.03,0.09,0.06,0.22,0.09,0.38c0.03,0.16,0.04,0.36,0.04,0.6c0,0.39-0.03,0.69-0.08,0.91c-0.05,0.22-0.13,0.39-0.24,0.5
		c-0.11,0.11-0.27,0.22-0.48,0.31c-0.21,0.09-0.46,0.17-0.73,0.23c-0.27,0.06-0.56,0.11-0.87,0.15c-0.31,0.04-0.61,0.06-0.92,0.06
		c-0.93,0-1.74-0.12-2.4-0.37c-0.67-0.25-1.21-0.62-1.64-1.12c-0.43-0.5-0.74-1.13-0.93-1.9s-0.29-1.67-0.29-2.71v-10.53h-2.52
		c-0.2,0-0.36-0.11-0.48-0.32c-0.12-0.21-0.18-0.56-0.18-1.04c0-0.25,0.02-0.47,0.05-0.64c0.03-0.17,0.08-0.32,0.13-0.43
		c0.05-0.11,0.12-0.19,0.21-0.24c0.09-0.05,0.18-0.07,0.29-0.07h2.5v-4.28c0-0.09,0.02-0.18,0.07-0.26
		c0.05-0.08,0.13-0.15,0.26-0.21c0.13-0.06,0.3-0.1,0.51-0.13c0.21-0.03,0.48-0.04,0.8-0.04c0.33,0,0.61,0.01,0.82,0.04
		c0.21,0.03,0.38,0.07,0.5,0.13c0.12,0.06,0.21,0.13,0.26,0.21c0.05,0.08,0.08,0.17,0.08,0.26v4.28H857.83z M859.25,217.26
		c0,0.77-0.15,1.3-0.44,1.58c-0.29,0.28-0.83,0.42-1.62,0.42c-0.77,0-1.3-0.14-1.59-0.41c-0.29-0.27-0.43-0.79-0.43-1.55
		c0-0.77,0.15-1.3,0.44-1.58c0.29-0.28,0.83-0.42,1.62-0.42c0.77,0,1.3,0.14,1.59,0.41C859.11,215.98,859.25,216.5,859.25,217.26z"
		/>
	<path class="st0" d="M881.75,232.15c0,1.47-0.19,2.82-0.58,4.05c-0.39,1.23-0.96,2.3-1.73,3.19c-0.77,0.89-1.73,1.59-2.88,2.09
		c-1.15,0.5-2.49,0.75-4.01,0.75c-1.48,0-2.77-0.22-3.87-0.66c-1.1-0.44-2.02-1.08-2.75-1.92c-0.73-0.84-1.28-1.86-1.64-3.06
		c-0.36-1.2-0.54-2.56-0.54-4.08c0-1.47,0.19-2.82,0.57-4.05c0.38-1.23,0.95-2.3,1.72-3.19c0.77-0.89,1.72-1.59,2.87-2.08
		c1.15-0.49,2.49-0.74,4.02-0.74c1.48,0,2.77,0.22,3.87,0.66c1.1,0.44,2.02,1.08,2.75,1.92c0.73,0.84,1.28,1.86,1.65,3.06
		S881.75,230.64,881.75,232.15z M878.33,232.37c0-0.97-0.09-1.89-0.27-2.76c-0.18-0.87-0.48-1.63-0.9-2.28
		c-0.42-0.65-0.98-1.17-1.7-1.55c-0.71-0.38-1.6-0.57-2.67-0.57c-0.98,0-1.83,0.17-2.54,0.52c-0.71,0.35-1.29,0.84-1.75,1.47
		s-0.8,1.38-1.02,2.25c-0.22,0.87-0.33,1.82-0.33,2.84c0,0.99,0.09,1.92,0.27,2.78c0.18,0.87,0.48,1.63,0.91,2.27
		c0.42,0.65,0.99,1.16,1.71,1.54c0.71,0.38,1.6,0.57,2.67,0.57c0.97,0,1.81-0.17,2.52-0.52c0.71-0.35,1.3-0.83,1.76-1.46
		c0.46-0.63,0.79-1.37,1.01-2.24C878.22,234.37,878.33,233.41,878.33,232.37z"/>
	<path class="st0" d="M902.13,241.36c0,0.11-0.03,0.2-0.08,0.27c-0.05,0.07-0.14,0.14-0.26,0.19c-0.12,0.05-0.29,0.09-0.5,0.12
		c-0.21,0.03-0.48,0.04-0.8,0.04c-0.33,0-0.61-0.01-0.82-0.04c-0.21-0.03-0.38-0.07-0.5-0.12s-0.21-0.12-0.26-0.19
		c-0.05-0.07-0.08-0.16-0.08-0.27v-10.55c0-1.03-0.08-1.85-0.24-2.48c-0.16-0.63-0.39-1.17-0.7-1.62c-0.31-0.45-0.7-0.8-1.19-1.04
		s-1.05-0.36-1.69-0.36c-0.83,0-1.66,0.29-2.48,0.88c-0.83,0.59-1.7,1.45-2.6,2.58v12.59c0,0.11-0.03,0.2-0.08,0.27
		c-0.05,0.07-0.14,0.14-0.26,0.19c-0.12,0.05-0.29,0.09-0.5,0.12c-0.21,0.03-0.49,0.04-0.82,0.04c-0.32,0-0.59-0.01-0.8-0.04
		c-0.21-0.03-0.38-0.07-0.51-0.12c-0.13-0.05-0.21-0.12-0.26-0.19c-0.05-0.07-0.07-0.16-0.07-0.27v-18.02c0-0.11,0.02-0.2,0.06-0.27
		s0.12-0.14,0.24-0.2c0.12-0.06,0.27-0.1,0.46-0.12c0.19-0.02,0.43-0.03,0.74-0.03c0.29,0,0.54,0.01,0.73,0.03
		c0.19,0.02,0.34,0.06,0.45,0.12c0.11,0.06,0.18,0.13,0.23,0.2s0.07,0.16,0.07,0.27v2.38c1.01-1.13,2.03-1.96,3.03-2.49
		c1.01-0.53,2.02-0.79,3.05-0.79c1.2,0,2.21,0.2,3.03,0.61c0.82,0.41,1.48,0.95,1.99,1.63c0.51,0.68,0.87,1.48,1.09,2.39
		c0.22,0.91,0.33,2.01,0.33,3.29V241.36z"/>
</g>
<rect class="st1" width="914.64" height="274.55"/>
</svg>
